<mxfile host="65bd71144e">
    <diagram id="b-blfYIkdgPZX9wCAae5" name="Page-1">
        <mxGraphModel dx="657" dy="350" grid="1" gridSize="10" guides="1" tooltips="1" connect="1" arrows="1" fold="1" page="0" pageScale="1" pageWidth="827" pageHeight="1169" background="#ffffff" math="0" shadow="0">
            <root>
                <mxCell id="0"/>
                <mxCell id="1" parent="0"/>
                <mxCell id="3" value="" style="rounded=0;whiteSpace=wrap;html=1;fillColor=none;strokeColor=#000000;" parent="1" vertex="1">
                    <mxGeometry x="110" y="200" width="610" height="260" as="geometry"/>
                </mxCell>
                <mxCell id="4" value="フロントエンド" style="html=1;fillColor=#F3EFFA;fontColor=#000000;strokeColor=#000000;" parent="3" vertex="1">
                    <mxGeometry x="30" y="42.58096774193549" width="117.41" height="41.935483870967744" as="geometry"/>
                </mxCell>
                <mxCell id="75" value="&lt;font color=&quot;#000000&quot;&gt;データベース&lt;/font&gt;" style="shape=cylinder3;whiteSpace=wrap;html=1;boundedLbl=1;backgroundOutline=1;size=15;fillColor=#f3effa;strokeColor=#000000;" vertex="1" parent="3">
                    <mxGeometry x="450" y="30.000322580645168" width="130" height="67.09677419354838" as="geometry"/>
                </mxCell>
                <mxCell id="76" value="サーバサイド" style="html=1;fillColor=#F3EFFA;fontColor=#000000;strokeColor=#000000;" vertex="1" parent="3">
                    <mxGeometry x="240" y="42.58096774193549" width="117.41" height="41.935483870967744" as="geometry"/>
                </mxCell>
                <mxCell id="77" value="" style="endArrow=classic;dashed=1;html=1;dashPattern=1 3;strokeWidth=2;fontColor=#000000;entryX=0;entryY=0.25;entryDx=0;entryDy=0;exitX=1;exitY=0.25;exitDx=0;exitDy=0;strokeColor=#000000;endFill=1;" edge="1" parent="3" source="4" target="76">
                    <mxGeometry width="50" height="50" relative="1" as="geometry">
                        <mxPoint x="180" y="100" as="sourcePoint"/>
                        <mxPoint x="230" y="50" as="targetPoint"/>
                    </mxGeometry>
                </mxCell>
                <mxCell id="80" value="" style="endArrow=classic;dashed=1;html=1;dashPattern=1 3;strokeWidth=2;fontColor=#000000;entryX=0;entryY=0.25;entryDx=0;entryDy=0;exitX=1;exitY=0.25;exitDx=0;exitDy=0;strokeColor=#000000;endFill=1;" edge="1" parent="3">
                    <mxGeometry width="50" height="50" relative="1" as="geometry">
                        <mxPoint x="357.40999999999997" y="50.00483870967747" as="sourcePoint"/>
                        <mxPoint x="450" y="50.00483870967747" as="targetPoint"/>
                    </mxGeometry>
                </mxCell>
                <mxCell id="79" value="" style="endArrow=classic;dashed=1;html=1;dashPattern=1 3;strokeWidth=2;fontColor=#000000;entryX=1;entryY=0.75;entryDx=0;entryDy=0;exitX=0;exitY=0.75;exitDx=0;exitDy=0;strokeColor=#000000;endFill=1;" edge="1" parent="3" source="76" target="4">
                    <mxGeometry width="50" height="50" relative="1" as="geometry">
                        <mxPoint x="147.40999999999997" y="110.00483870967747" as="sourcePoint"/>
                        <mxPoint x="240" y="110.00483870967747" as="targetPoint"/>
                    </mxGeometry>
                </mxCell>
                <mxCell id="81" value="" style="endArrow=classic;dashed=1;html=1;dashPattern=1 3;strokeWidth=2;fontColor=#000000;entryX=1;entryY=0.75;entryDx=0;entryDy=0;exitX=0;exitY=0.75;exitDx=0;exitDy=0;strokeColor=#000000;endFill=1;" edge="1" parent="3">
                    <mxGeometry width="50" height="50" relative="1" as="geometry">
                        <mxPoint x="450" y="70.00258064516129" as="sourcePoint"/>
                        <mxPoint x="357.40999999999997" y="70.00258064516129" as="targetPoint"/>
                    </mxGeometry>
                </mxCell>
                <mxCell id="82" value="HTML" style="shape=note;whiteSpace=wrap;html=1;backgroundOutline=1;darkOpacity=0.05;strokeColor=#000000;fontColor=#000000;fillColor=#f3effa;size=10;" vertex="1" parent="3">
                    <mxGeometry x="30" y="97.1" width="100" height="20" as="geometry"/>
                </mxCell>
                <mxCell id="83" value="CSS" style="shape=note;whiteSpace=wrap;html=1;backgroundOutline=1;darkOpacity=0.05;strokeColor=#000000;fontColor=#000000;fillColor=#f3effa;size=10;" vertex="1" parent="3">
                    <mxGeometry x="40" y="115.1" width="100" height="20" as="geometry"/>
                </mxCell>
                <mxCell id="84" value="JavaScript" style="shape=note;whiteSpace=wrap;html=1;backgroundOutline=1;darkOpacity=0.05;strokeColor=#000000;fontColor=#000000;fillColor=#f3effa;size=10;" vertex="1" parent="3">
                    <mxGeometry x="50" y="132.1" width="100" height="20" as="geometry"/>
                </mxCell>
                <mxCell id="85" value="TypeScript" style="shape=note;whiteSpace=wrap;html=1;backgroundOutline=1;darkOpacity=0.05;strokeColor=#000000;fontColor=#000000;fillColor=#f3effa;size=10;" vertex="1" parent="3">
                    <mxGeometry x="240" y="97.1" width="100" height="20" as="geometry"/>
                </mxCell>
                <mxCell id="86" value="Web API&lt;br&gt;(JSON)" style="text;html=1;strokeColor=none;fillColor=none;align=center;verticalAlign=middle;whiteSpace=wrap;rounded=0;fontColor=#000000;" vertex="1" parent="3">
                    <mxGeometry x="170" y="84.51999999999998" width="60" height="30" as="geometry"/>
                </mxCell>
                <mxCell id="87" value="フレームワーク: Express&lt;br&gt;ORマッパー: なし" style="text;html=1;strokeColor=none;fillColor=none;align=left;verticalAlign=middle;whiteSpace=wrap;rounded=0;fontColor=#000000;" vertex="1" parent="3">
                    <mxGeometry x="240" y="127.1" width="150" height="30" as="geometry"/>
                </mxCell>
                <mxCell id="88" value="MySQL" style="text;html=1;strokeColor=none;fillColor=none;align=center;verticalAlign=middle;whiteSpace=wrap;rounded=0;fontColor=#000000;" vertex="1" parent="3">
                    <mxGeometry x="485" y="110.10000000000002" width="60" height="30" as="geometry"/>
                </mxCell>
                <mxCell id="17" value="Untitled Layer" parent="0"/>
                <mxCell id="26" value="Untitled Layer" parent="0"/>
            </root>
        </mxGraphModel>
    </diagram>
</mxfile>